<svg xmlns="http://www.w3.org/2000/svg" viewBox="0 0 512 512" role="img" aria-label="Kelp Forest icon">
  <rect width="512" height="512" rx="96" fill="#006b7f"/>
  <circle cx="390" cy="110" r="54" fill="#7fd7e5" opacity="0.55"/>
  <path d="M132 438c44-70 28-134 6-196-22-63-14-118 42-168" fill="none" stroke="#d99a2b" stroke-width="24" stroke-linecap="round"/>
  <path d="M242 442c-18-76 22-126 50-178 31-57 28-112-10-174" fill="none" stroke="#f0bd54" stroke-width="22" stroke-linecap="round"/>
  <path d="M354 436c-48-72-40-136-8-198 28-55 20-103-30-154" fill="none" stroke="#b87922" stroke-width="20" stroke-linecap="round"/>
  <ellipse cx="104" cy="210" rx="50" ry="16" fill="#f0bd54" transform="rotate(-24 104 210)"/>
  <ellipse cx="196" cy="142" rx="54" ry="17" fill="#d99a2b" transform="rotate(28 196 142)"/>
  <ellipse cx="302" cy="210" rx="55" ry="16" fill="#f0bd54" transform="rotate(-30 302 210)"/>
  <ellipse cx="398" cy="284" rx="48" ry="15" fill="#d99a2b" transform="rotate(20 398 284)"/>
  <path d="M84 352c36-20 72-20 108 0-36 20-72 20-108 0Z" fill="#dff7fb"/>
  <circle cx="164" cy="348" r="5" fill="#006b7f"/>
</svg>
