<svg xmlns="http://www.w3.org/2000/svg" viewBox="0 0 512 512"><rect width="512" height="512" rx="96" fill="#073f4a"/><path d="M256 430V244M256 298c-52-8-94-37-126-83M256 330c57-8 106-41 139-93M130 215c-33-22-50-61-43-101 41-4 81 15 102 50 18 31 15 69-7 95M395 237c37-24 57-66 51-110-46-5-91 16-114 55-20 34-15 76 11 103M256 244c-37-27-57-71-51-116 48-5 94 17 117 58 19 33 15 74-10 101" fill="none" stroke="#dff3f2" stroke-width="22" stroke-linecap="round" stroke-linejoin="round"/><circle cx="256" cy="430" r="24" fill="#e5ad42"/></svg>